<svg width="490" height="452" xmlns="http://www.w3.org/2000/svg"><g fill="none"><path fill="#000" d="M244.67 207.4l.11-.26h-.22z"/><path fill="#000" d="M244.67 207.4l.11-.26h-.22z"/><path fill="#FFF" d="M244.67 313.28l-35.5-84.77H93.39l-.11.26 57.89 138.24 35.39 84.5h116z"/><path fill="#1B242F" d="M395.95 228.51H280.17l-35.5 84.77 57.89 138.23h.22l35.39-84.5 57.89-138.23z"/><path fill="#FFF" d="M338.17 367.01l35.39 84.5h115.78l-93.28-222.73z"/><path fill="#1B242F" d="M0 451.51h115.78l35.39-84.5-57.89-138.24z"/><path fill="#FFF" d="M334.83 81.84L300.56 0H188.78l55.89 133.45 34.27 81.84h111.77z"/><path fill="#1B242F" d="M188.78 0l-34.27 81.84-55.89 133.45H210.4l34.27-81.84z"/></g></svg>