<svg xmlns="http://www.w3.org/2000/svg" xmlns:xlink="http://www.w3.org/1999/xlink" width="16" height="16" viewBox="0 0 16 16">
  <defs>
    <path id="send-a" d="M19.7068123,4.29263651 C19.4338123,4.02063651 19.0268123,3.92763651 18.6638123,4.05863651 L4.66381231,9.05863651 C4.28681231,9.19263651 4.02581231,9.53963651 4.00181231,9.93863651 C3.97781231,10.3386365 4.19381231,10.7136365 4.55281231,10.8936365 L9.13881231,13.1856365 L14.9998123,8.99963651 L10.8128123,14.8616365 L13.1048123,19.4476365 C13.2758123,19.7866365 13.6228123,19.9996365 13.9998123,19.9996365 C14.0208123,19.9996365 14.0408123,19.9986365 14.0608123,19.9976365 C14.4608123,19.9736365 14.8078123,19.7136365 14.9428123,19.3356365 L19.9428123,5.33563651 C20.0718123,4.97263651 19.9798123,4.56563651 19.7068123,4.29263651 Z"/>
  </defs>
  <g fill="none" fill-rule="evenodd" transform="translate(-4 -4)">
    <mask id="send-b" fill="#fff">
      <use xlink:href="#send-a"/>
    </mask>
    <g fill="#fff" mask="url(#send-b)">
      <rect width="24" height="24"/>
    </g>
  </g>
</svg>
