<?xml version="1.0" encoding="UTF-8"?>
<svg width="490px" height="452px" viewBox="0 0 490 452" version="1.1" xmlns="http://www.w3.org/2000/svg" xmlns:xlink="http://www.w3.org/1999/xlink">
    <!-- Generator: Sketch 53 (72520) - https://sketchapp.com -->
    <title>Group</title>
    <desc>Created with Sketch.</desc>
    <g id="Page-1" stroke="none" stroke-width="1" fill="none" fill-rule="evenodd">
        <g id="Group" fill-rule="nonzero">
            <polygon id="Path" fill="#000000" points="244.67 207.4 244.78 207.14 244.56 207.14"></polygon>
            <polygon id="Path" fill="#000000" points="244.67 207.4 244.78 207.14 244.56 207.14"></polygon>
            <polygon id="Path" fill="#FFFFFF" points="244.67 313.28 244.67 313.28 209.17 228.51 209.17 228.51 93.39 228.51 93.28 228.77 151.17 367.01 186.56 451.51 186.78 451.51 186.78 451.51 302.56 451.51"></polygon>
            <polygon id="Path" fill="#1B242F" points="395.95 228.51 280.17 228.51 280.17 228.51 244.67 313.28 302.56 451.51 302.78 451.51 338.17 367.01 396.06 228.78"></polygon>
            <polygon id="Path" fill="#FFFFFF" points="338.17 367.01 373.56 451.51 489.34 451.51 396.06 228.78"></polygon>
            <polygon id="Path" fill="#1B242F" points="0 451.51 115.78 451.51 151.17 367.01 93.28 228.77"></polygon>
            <polygon id="Path" fill="#FFFFFF" points="334.83 81.84 300.56 0 188.78 0 244.67 133.45 278.94 215.29 278.94 215.29 390.71 215.29"></polygon>
            <polygon id="Path" fill="#1B242F" points="188.78 0 188.78 0 154.51 81.84 98.62 215.29 210.4 215.29 210.4 215.29 244.67 133.45"></polygon>
        </g>
    </g>
</svg>